<mxfile host="app.diagrams.net" modified="2020-09-25T15:51:55.317Z" agent="5.0 (Windows NT 10.0; WOW64) AppleWebKit/537.36 (KHTML, like Gecko) Chrome/70.0.3538.25 Safari/537.36 Core/1.70.3775.400 QQBrowser/10.6.4209.400" etag="FwiXFT6D9O9-zIlYhKAd" version="13.7.3" type="github">
  <diagram id="0tc8ENnQvHXMWu9yKGkM" name="第 1 页">
    <mxGraphModel dx="1381" dy="771" grid="1" gridSize="10" guides="1" tooltips="1" connect="1" arrows="1" fold="1" page="1" pageScale="1" pageWidth="827" pageHeight="21169" math="0" shadow="0">
      <root>
        <mxCell id="0" />
        <mxCell id="1" parent="0" />
      </root>
    </mxGraphModel>
  </diagram>
</mxfile>
